<svg width="252" height="196" viewBox="0 0 252 196" fill="none" xmlns="http://www.w3.org/2000/svg">
<g clip-path="url(#clip0_7727_8913)">
<path d="M134.526 89.3178C137.735 90.5635 140.4 89.3644 142.919 87.5365C144.68 86.2544 144.726 85.5214 143.149 84.1133C138.473 79.9344 126.64 72.7217 120.424 70.2613C118.523 72.2141 118.105 76.4696 119.937 79.2252C120.892 80.6621 120.632 81.5865 119.784 82.7197L102.016 106.877C91.9183 120.618 81.7638 134.317 71.7535 148.12C68.008 153.279 64.3662 158.551 61.1024 164.032C58.7692 167.845 57.7264 172.321 58.1345 176.77C58.7408 182.91 62.3194 186.815 67.7583 188.927C72.7501 190.865 77.4402 189.734 81.6594 186.428C86.2475 182.831 89.5753 178.196 92.1893 173.007C105.852 145.903 119.514 118.8 133.175 91.6977C133.577 90.9344 134.043 90.1886 134.526 89.3178Z" fill="#39BF9A"/>
<path d="M158.538 92.4818L178.195 60.617C175.968 59.7886 173.968 59.0303 171.961 58.2908C157.775 53.0971 145.196 45.1696 133.977 35.0221C132.192 33.4081 130.607 31.5665 128.896 29.8632C128.111 29.0816 127.333 28.5181 126.464 29.9414C120.424 39.8585 114.345 49.7459 108.284 59.6465C108.18 59.9409 108.108 60.2459 108.07 60.5559C127.297 66.6962 144.654 77.6765 158.538 92.4818Z" fill="#34AE8C"/>
<path d="M81.3847 57.8985C84.9076 61.2852 88.9097 63.8522 93.7238 64.8826C98.0469 65.804 100.325 64.7105 102.67 60.8782C110.023 48.8619 117.279 36.7862 124.822 24.892C127.692 20.342 127.847 18.0054 124.151 13.6066C120.357 9.09476 115.54 6.06609 109.443 5.58291C106.361 5.33717 104.155 6.48316 102.52 9.1723C95.9961 19.8789 89.3992 30.5393 82.8444 41.2325C81.8399 42.8673 80.8627 44.5186 79.8461 46.1468C77.2806 50.2369 77.4075 52.991 80.3745 56.7671C80.6691 57.1661 81.0248 57.507 81.3847 57.8985Z" fill="#1A7358"/>
<path d="M162.771 109.299C166.388 112.723 170.771 115.485 176.331 116.019C179.478 116.319 181.624 114.998 183.248 112.358C190.131 101.156 197.034 89.9648 203.956 78.7833C204.673 77.491 205.454 76.2363 206.297 75.0242C208.571 72.0622 208.468 69.0238 206.435 66.23C202.255 60.4848 196.791 56.8079 189.493 56.552C187.053 56.4519 185.202 57.4315 183.848 59.6456C175.868 72.6857 167.845 85.712 159.84 98.7388C158.113 101.55 158.979 104.134 160.545 106.591C161.238 107.535 161.98 108.439 162.771 109.299Z" fill="#1A7358"/>
</g>
<defs>
<clipPath id="clip0_7727_8913">
<rect width="252" height="196" fill="white" transform="matrix(-1 0 0 1 252 0)"/>
</clipPath>
</defs>
</svg>
